<svg width="1600" height="900" viewBox="0 0 1600 900" fill="none" xmlns="http://www.w3.org/2000/svg">
  <defs>
    <linearGradient id="g" x1="120" y1="120" x2="1480" y2="780" gradientUnits="userSpaceOnUse">
      <stop stop-color="#F3EEFF"/>
      <stop offset="1" stop-color="#E2DAFF"/>
    </linearGradient>
  </defs>
  <rect width="1600" height="900" fill="url(#g)"/>
  <circle cx="1320" cy="170" r="140" fill="#FFFFFF" fill-opacity="0.20"/>
  <circle cx="210" cy="760" r="170" fill="#FFFFFF" fill-opacity="0.15"/>
  <g>
    <circle cx="820" cy="390" r="220" fill="#FFFFFF"/>
    <circle cx="820" cy="350" r="92" fill="#FFC8A6"/>
    <path d="M730 354C730 288 770 250 820 250C870 250 910 288 910 354V372H730V354Z" fill="#2A3D7A"/>
    <circle cx="786" cy="350" r="10" fill="#1D2745"/>
    <circle cx="854" cy="350" r="10" fill="#1D2745"/>
    <path d="M782 396C808 414 832 414 858 396" stroke="#E7876A" stroke-width="8" stroke-linecap="round"/>
    <rect x="680" y="462" width="280" height="240" rx="130" fill="#1F6FFF"/>
    <rect x="760" y="448" width="120" height="90" rx="50" fill="#FFC8A6"/>
  </g>
</svg>
