<svg width="1600" height="900" viewBox="0 0 1600 900" fill="none" xmlns="http://www.w3.org/2000/svg">
  <defs>
    <linearGradient id="g" x1="120" y1="120" x2="1480" y2="780" gradientUnits="userSpaceOnUse">
      <stop stop-color="#ECF7FF"/>
      <stop offset="1" stop-color="#DDEFFF"/>
    </linearGradient>
  </defs>
  <rect width="1600" height="900" fill="url(#g)"/>
  <circle cx="1320" cy="170" r="140" fill="#FFFFFF" fill-opacity="0.20"/>
  <circle cx="210" cy="760" r="170" fill="#FFFFFF" fill-opacity="0.15"/>
  <g>
    <rect x="190" y="220" width="560" height="420" rx="24" fill="#FFFFFF"/>
    <rect x="250" y="300" width="180" height="180" rx="20" fill="#D5E3FF"/>
    <rect x="460" y="300" width="220" height="34" rx="10" fill="#C1D6FF"/>
    <rect x="460" y="356" width="180" height="34" rx="10" fill="#C1D6FF"/>
    <rect x="460" y="412" width="200" height="34" rx="10" fill="#C1D6FF"/>
    <rect x="850" y="220" width="560" height="420" rx="24" fill="#FFFFFF"/>
    <ellipse cx="1130" cy="314" rx="180" ry="54" fill="#C9DBFF"/>
    <rect x="950" y="314" width="360" height="160" fill="#C9DBFF"/>
    <ellipse cx="1130" cy="474" rx="180" ry="54" fill="#B1CCFF"/>
    <path d="M760 420H840" stroke="#1F6FFF" stroke-width="18" stroke-linecap="round"/>
    <path d="M820 380L860 420L820 460" stroke="#1F6FFF" stroke-width="18" stroke-linecap="round" stroke-linejoin="round"/>
  </g>
</svg>
