<svg width="1600" height="900" viewBox="0 0 1600 900" fill="none" xmlns="http://www.w3.org/2000/svg">
  <defs>
    <linearGradient id="g" x1="120" y1="120" x2="1480" y2="780" gradientUnits="userSpaceOnUse">
      <stop stop-color="#EAF7FF"/>
      <stop offset="1" stop-color="#D8EEFF"/>
    </linearGradient>
  </defs>
  <rect width="1600" height="900" fill="url(#g)"/>
  <circle cx="1320" cy="170" r="140" fill="#FFFFFF" fill-opacity="0.20"/>
  <circle cx="210" cy="760" r="170" fill="#FFFFFF" fill-opacity="0.15"/>
  <g>
    <circle cx="520" cy="300" r="48" fill="#FFFFFF"/>
    <circle cx="760" cy="260" r="48" fill="#CDE1FF"/>
    <circle cx="980" cy="340" r="48" fill="#AECBFF"/>
    <circle cx="660" cy="500" r="52" fill="#FFFFFF"/>
    <circle cx="900" cy="520" r="52" fill="#CDE1FF"/>
    <line x1="560" y1="292" x2="712" y2="268" stroke="#4C7FE7" stroke-width="12" stroke-linecap="round"/>
    <line x1="806" y1="274" x2="936" y2="324" stroke="#4C7FE7" stroke-width="12" stroke-linecap="round"/>
    <line x1="548" y1="336" x2="632" y2="458" stroke="#4C7FE7" stroke-width="12" stroke-linecap="round"/>
    <line x1="805" y1="366" x2="880" y2="476" stroke="#4C7FE7" stroke-width="12" stroke-linecap="round"/>
    <path d="M1220 260V620H1380V260H1220ZM1280 320H1320V560H1280V320Z" fill="#1F6FFF" fill-opacity="0.2"/>
    <path d="M1210 420H1390" stroke="#1F6FFF" stroke-width="14" stroke-linecap="round"/>
  </g>
</svg>
