<svg width="1600" height="900" viewBox="0 0 1600 900" fill="none" xmlns="http://www.w3.org/2000/svg">
  <defs>
    <linearGradient id="g" x1="120" y1="120" x2="1480" y2="780" gradientUnits="userSpaceOnUse">
      <stop stop-color="#FFF0F2"/>
      <stop offset="1" stop-color="#FFE1E5"/>
    </linearGradient>
  </defs>
  <rect width="1600" height="900" fill="url(#g)"/>
  <circle cx="1320" cy="170" r="140" fill="#FFFFFF" fill-opacity="0.20"/>
  <circle cx="210" cy="760" r="170" fill="#FFFFFF" fill-opacity="0.15"/>
  <g>
    <rect x="220" y="210" width="1160" height="480" rx="28" fill="#FFFFFF"/>
    <rect x="220" y="210" width="1160" height="80" rx="28" fill="#E8EEFF"/>
    <rect x="300" y="238" width="140" height="24" rx="8" fill="#9DBBFF"/>
    <rect x="480" y="238" width="140" height="24" rx="8" fill="#C2D5FF"/>
    <rect x="660" y="238" width="140" height="24" rx="8" fill="#C2D5FF"/>
    <rect x="840" y="238" width="140" height="24" rx="8" fill="#C2D5FF"/>
    <path d="M350 500C520 430 690 430 860 500" stroke="#1F6FFF" stroke-width="16" stroke-linecap="round"/>
    <path d="M840 462L910 510L830 550" stroke="#1F6FFF" stroke-width="16" stroke-linecap="round" stroke-linejoin="round"/>
    <circle cx="350" cy="500" r="20" fill="#1F6FFF"/>
    <circle cx="860" cy="500" r="20" fill="#1F6FFF"/>
  </g>
</svg>
