<svg width="1600" height="900" viewBox="0 0 1600 900" fill="none" xmlns="http://www.w3.org/2000/svg">
  <defs>
    <linearGradient id="g" x1="120" y1="120" x2="1480" y2="780" gradientUnits="userSpaceOnUse">
      <stop stop-color="#E8F4FF"/>
      <stop offset="1" stop-color="#D5EAFF"/>
    </linearGradient>
  </defs>
  <rect width="1600" height="900" fill="url(#g)"/>
  <circle cx="1320" cy="170" r="140" fill="#FFFFFF" fill-opacity="0.20"/>
  <circle cx="210" cy="760" r="170" fill="#FFFFFF" fill-opacity="0.15"/>
  <g>
    <rect x="270" y="190" width="1060" height="520" rx="28" fill="#FFFFFF"/>
    <rect x="270" y="190" width="1060" height="58" rx="28" fill="#DDEBFF"/>
    <circle cx="316" cy="218" r="10" fill="#5F8EEB"/>
    <circle cx="350" cy="218" r="10" fill="#5F8EEB"/>
    <circle cx="384" cy="218" r="10" fill="#5F8EEB"/>
    <path d="M500 360L430 430L500 500" stroke="#1F6FFF" stroke-width="16" stroke-linecap="round" stroke-linejoin="round"/>
    <path d="M730 340L640 540" stroke="#7AA5FF" stroke-width="16" stroke-linecap="round"/>
    <path d="M860 360L930 430L860 500" stroke="#1F6FFF" stroke-width="16" stroke-linecap="round" stroke-linejoin="round"/>
    <rect x="1020" y="330" width="220" height="42" rx="12" fill="#D5E4FF"/>
    <rect x="1020" y="392" width="180" height="42" rx="12" fill="#D5E4FF"/>
    <rect x="1020" y="454" width="240" height="42" rx="12" fill="#D5E4FF"/>
  </g>
</svg>
